{"title":"9 Songs (2004) BRRIP 1080P Uncensored Version","uid":8991919,"size":2528226279,"categoryP":"video","categoryS":"hd___movies","magnet":"?xt=urn:btih:c0cb69c70ba35c4a35ed2ff30d9325388368222b&amp;dn=9+Songs+%282004%29+BRRIP+1080P+Uncensored+Version&amp;tr=udp%3A%2F%2Ftracker.openbittorrent.com%3A80&amp;tr=udp%3A%2F%2Fopen.demonii.com%3A1337&amp;tr=udp%3A%2F%2Ftracker.coppersurfer.tk%3A6969&amp;tr=udp%3A%2F%2Fexodus.desync.com%3A6969","seeders":5,"leechers":0,"uploader":"Julioso","files":3,"time":1380759754,"description":" &lt;a href=&quot;http://www.imdb.com/title/tt0411705/&quot; rel=&quot;nofollow&quot; target=&quot;_NEW&quot;&gt;http://www.imdb.com/title/tt0411705/&lt;/a&gt;\n\n\n\nComplete name                            : G:MOVIES9 Songs (2004)9 Songs (2004).mp4\nFormat                                   : MPEG-4\nFormat profile                           : Base Media / Version 2\nCodec ID                                 : mp42\nFile size                                : 2.33 GiB\nDuration                                 : 1h 6mn\nOverall bit rate mode                    : Variable\nOverall bit rate                         : 4 984 Kbps\nEncoded date                             : UTC 2013-10-02 21:13:33\nTagged date                              : UTC 2013-10-03 04:03:49\nWriting application                      : HandBrake 0.9.9 2013052900\n\nVideo\nID                                       : 1\nFormat                                   : AVC\nFormat/Info                              : Advanced Video Codec\nFormat profile                           : &lt;a class=&quot;__cf_email__&quot; href=&quot;/cdn-cgi/l/email-protection&quot; data-cfemail=&quot;6d200c04032d2159435d&quot;&gt;[email&amp;#160;protected]&lt;/a&gt;&lt;script cf-hash='f9e31' type=&quot;text/javascript&quot;&gt;\n/* &lt;![CDATA[ */!function(){try{var t=&quot;currentScript&quot;in document?document.currentScript:function(){for(var t=document.getElementsByTagName(&quot;script&quot;),e=t.length;e--;)if(t[e].getAttribute(&quot;cf-hash&quot;))return t[e]}();if(t&amp;&amp;t.previousSibling){var e,r,n,i,c=t.previousSibling,a=c.getAttribute(&quot;data-cfemail&quot;);if(a){for(e=&quot;&quot;,r=parseInt(a.substr(0,2),16),n=2;a.length-n;n+=2)i=parseInt(a.substr(n,2),16)^r,e+=String.fromCharCode(i);e=document.createTextNode(e),c.parentNode.replaceChild(e,c)}}}catch(u){}}();/* ]]&gt; */&lt;/script&gt;\nFormat settings, CABAC                   : Yes\nFormat settings, ReFrames                : 4 frames\nCodec ID                                 : avc1\nCodec ID/Info                            : Advanced Video Coding\nDuration                                 : 1h 6mn\nBit rate mode                            : Variable\nBit rate                                 : 4 868 Kbps\nWidth                                    : 1 920 pixels\nHeight                                   : 1 080 pixels\nDisplay aspect ratio                     : 16:9\nFrame rate mode                          : Variable\nFrame rate                               : 24.924 fps\nMinimum frame rate                       : 14.286 fps\nMaximum frame rate                       : 47.120 fps\nColor space                              : YUV\nChroma subsampling                       : 4:2:0\nBit depth                                : 8 bits\nScan type                                : Progressive\nBits/(Pixel*Frame)                       : 0.094\nStream size                              : 2.27 GiB (98%)\nWriting library                          : x264 core 130 r2273 b3065e6\nEncoding settings                        : cabac=1 // deblock=1:0:0 / \nEncoded date                             : UTC 2013-10-02 21:13:33\nTagged date                              : UTC 2013-10-03 04:03:49\nColor primaries                          : BT.709\nTransfer characteristics                 : BT.709\nMatrix coefficients                      : BT.709\n\nAudio\nID                                       : 2\nFormat                                   : AAC\nFormat/Info                              : Advanced Audio Codec\nFormat profile                           : LC\nCodec ID                                 : 40\nDuration                                 : 1h 6mn\nBit rate mode                            : Variable\nBit rate                                 : 112 Kbps\nMaximum bit rate                         : 204 Kbps\nChannel(s)                               : 2 channels\nChannel positions                        : Front: L R\nSampling rate                            : 48.0 KHz\nCompression mode                         : Lossy\nDelay relative to video                  : 99ms\nStream size                              : 53.5 MiB (2%)\nLanguage                                 : English\nEncoded date                             : UTC 2013-10-02 21:13:33\nTagged date                              : UTC 2013-10-03 04:03:48\n\n\n &lt;a href=&quot;\nhttp://postimg.org/image/unkh8h83z/&quot; rel=&quot;nofollow&quot; target=&quot;_NEW&quot;&gt;\nhttp://postimg.org/image/unkh8h83z/&lt;/a&gt;\n\n &lt;a href=&quot;\nhttp://postimg.org/image/uouf1w9xr/&quot; rel=&quot;nofollow&quot; target=&quot;_NEW&quot;&gt;\nhttp://postimg.org/image/uouf1w9xr/&lt;/a&gt;\n\n\n &lt;a href=&quot;\nhttp://www.movie-censorship.com/report.php?ID=3674509&quot; rel=&quot;nofollow&quot; target=&quot;_NEW&quot;&gt;\nhttp://www.movie-censorship.com/report.php?ID=3674509&lt;/a&gt;\n\n\nRunning time:\n\nUK DVD: 66:48 Min. (PAL)\nUS DVD: 64:01 Min. (NTSC) \n\n\nMine is the UK Version Which is Uncensored\n\n\n\nStoryline\n\nMatt, a young glaciologist, soars across the vast, silent, icebound immensities of the South Pole as he recalls his love affair with Lisa. They meet at a mobbed rock concert in a vast music hall--London's Brixton Academy. They are in bed at night's end. Together, over a period of several months, they pursue a mutual sexual passion whose inevitable stages unfold in counterpoint to nine live-concert songs","torrent":{"xt":"urn:btih:c0cb69c70ba35c4a35ed2ff30d9325388368222b","amp;dn":"9+Songs+%282004%29+BRRIP+1080P+Uncensored+Version","amp;tr":["udp%3A%2F%2Ftracker.openbittorrent.com%3A80","udp%3A%2F%2Fopen.demonii.com%3A1337","udp%3A%2F%2Ftracker.coppersurfer.tk%3A6969","udp%3A%2F%2Fexodus.desync.com%3A6969"],"infoHash":"c0cb69c70ba35c4a35ed2ff30d9325388368222b","infoHashBuffer":{"type":"Buffer","data":[192,203,105,199,11,163,92,74,53,237,47,243,13,147,37,56,131,104,34,43]},"announce":[],"urlList":[]}}